++++++++++++<?xml version="1.0" encoding="UTF-8" standalone="no"?>
<svg
   width="466"
   height="1148"
   viewBox="0 0 466 1148"
   fill="none"
   version="1.1"
   id="svg18"
   xmlns="http://www.w3.org/2000/svg"
   xmlns:svg="http://www.w3.org/2000/svg">
  <defs
     id="defs18" />
  <g
     id="calves">
    <path
       d="M70 1120.54L76.5 1132.54L79.5 1137.04L82.5 1139.54L88 1138.54L95.5 1135.54L102 1132.04L108.5 1126.54L113.5 1119.54L118 1107.04L119 1099.54L122 1096.54L124 1098.54L125 1102.54V1110.54L127.5 1115.04L129.5 1122.04L135.5 1130.54L142 1135.54L151 1143.04L155.5 1147.04L158 1139.54L161 1133.04L163.5 1126.54L167 1119.54L169.5 1108.54L171.5 1093.54L173 1080.04V1053.54L170 1034.04L167 1016.54L166.5 1005.54V986.041L165 981.541L159 970.041L153.5 956.041L147.5 942.041L142.5 928.541L139.5 916.541L137 908.041L134.5 901.041L132 889.041L130.5 896.041L127 911.041L119 927.541L107.5 948.041L94.5 967.041L90.5 973.541L87.5 983.541L80 999.541L74.5 1014.54L69 1030.54L66.5 1044.04L64 1066.54V1080.54L66 1095.04L68 1108.04L70 1120.54Z"
       fill="white"
       fill-opacity="0.71"
       id="path1" />
    <path
       d="M385 1119.54L378.5 1131.04L375.5 1136.04L372.5 1138.54L367 1137.54L359.5 1134.54L353 1131.04L346.5 1125.54L341.5 1118.54L337 1106.04L336 1098.54L333 1095.54L331 1097.54L330 1101.54V1109.54L327.5 1114.04L325.5 1121.04L319.5 1129.54L313 1134.54L304 1142.04L299.5 1146.04L297 1138.54L294 1132.04L291.5 1125.54L288 1118.54L285.5 1107.54L283.5 1092.54L282 1079.04V1052.54L285 1033.04L288 1015.54L288.5 1004.54V985.041L290 980.541L296 969.041L301.5 955.041L307.5 941.041L312.5 927.541L315.5 915.541L318 907.041L320.5 900.041L323 888.041L324.5 895.041L328 910.041L336 926.541L347.5 947.041L360 965.541L364.5 972.541L367.5 982.541L375 998.541L380.5 1013.54L386 1029.54L388.5 1043.04L391 1065.54V1079.54L389 1094.04L387 1107.04L385 1119.54Z"
       fill="white"
       fill-opacity="0.71"
       id="path2" />
  </g>
  <path
     d="M70 1120.54L76.5 1132.54L79.5 1137.04L82.5 1139.54L88 1138.54L95.5 1135.54L102 1132.04L108.5 1126.54L113.5 1119.54L118 1107.04L119 1099.54L122 1096.54L124 1098.54L125 1102.54V1110.54L127.5 1115.04L129.5 1122.04L135.5 1130.54L142 1135.54L151 1143.04L155.5 1147.04L158 1139.54L161 1133.04L163.5 1126.54L167 1119.54L169.5 1108.54L171.5 1093.54L173 1080.04V1053.54L170 1034.04L167 1016.54L166.5 1005.54V986.041L165 981.541L159 970.041L153.5 956.041L147.5 942.041L142.5 928.541L139.5 916.541L137 908.041L134.5 901.041L132 889.041L130.5 896.041L127 911.041L119 927.541L107.5 948.041L94.5 967.041L90.5 973.541L87.5 983.541L80 999.541L74.5 1014.54L69 1030.54L66.5 1044.04L64 1066.54V1080.54L66 1095.04L68 1108.04L70 1120.54Z"
     stroke="black"
     id="path3" />
  <path
     d="M385 1119.54L378.5 1131.04L375.5 1136.04L372.5 1138.54L367 1137.54L359.5 1134.54L353 1131.04L346.5 1125.54L341.5 1118.54L337 1106.04L336 1098.54L333 1095.54L331 1097.54L330 1101.54V1109.54L327.5 1114.04L325.5 1121.04L319.5 1129.54L313 1134.54L304 1142.04L299.5 1146.04L297 1138.54L294 1132.04L291.5 1125.54L288 1118.54L285.5 1107.54L283.5 1092.54L282 1079.04V1052.54L285 1033.04L288 1015.54L288.5 1004.54V985.041L290 980.541L296 969.041L301.5 955.041L307.5 941.041L312.5 927.541L315.5 915.541L318 907.041L320.5 900.041L323 888.041L324.5 895.041L328 910.041L336 926.541L347.5 947.041L360 965.541L364.5 972.541L367.5 982.541L375 998.541L380.5 1013.54L386 1029.54L388.5 1043.04L391 1065.54V1079.54L389 1094.04L387 1107.04L385 1119.54Z"
     stroke="black"
     id="path4" />
  <g
     id="hamstrings">
    <path
       d="M87.5 914.541L82 963.541L89.5 960.041L102 943.041L114 926.041L122 909.041L127.5 890.541L131 876.541C132.167 880.041 135.9 892.541 141.5 914.541C147.1 936.541 146.5 933.374 145.5 929.041L154.5 949.541L158.5 960.041L168.5 981.541L174.5 965.541L184 936.041L188.5 887.041L193.5 854.541L198 834.041L202 809.041L204.5 792.541L208 780.041L211 762.041L212.5 733.541L210 713.541L206.5 700.041L202.5 689.541L199.5 687.541V684.541L193 683.541H186.5H180.5L176 684.541C173.833 686.207 168 689.541 162 689.541H149.5L141 690.541L134 692.541L127.5 698.041L119.5 705.041L114 713.541L106 729.041L102.5 739.041L97.5 754.041L93 775.041L87.5 835.541V879.041V914.541Z"
       fill="#FF0004"
       fill-opacity="0.5"
       stroke="black"
       id="path5" />
    <path
       d="M367 914.541L372.5 963.541L365 960.041L352.5 943.041L340.5 926.041L332.5 909.041L327 890.541L323.5 876.541C322.333 880.041 318.6 892.541 313 914.541C307.4 936.541 308 933.374 309 929.041L300 949.541L296 960.041L286 981.541L280 965.541L270.5 936.041L266 887.041L261 854.541L256.5 834.041L252.5 809.041L250 792.541L246.5 780.041L243.5 762.041L242 733.541L244.5 713.541L248 700.041L252 689.541L255 687.541V684.541L261.5 683.541H268H274L278.5 684.541C280.667 686.207 286.5 689.541 292.5 689.541H305L313.5 690.541L320.5 692.541L327 698.041L335 705.041L340.5 713.541L348.5 729.041L352 739.041L357 754.041L361.5 775.041L367 835.541V879.041V914.541Z"
       fill="#FF0004"
       fill-opacity="0.5"
       stroke="black"
       id="path6" />
  </g>
  <g
     id="teres_major_and_minor">
    <path
       d="M83 201.041C78.6 206.641 76.8333 207.374 76.5 207.041V210.041L79 212.541L84 217.541L89 222.041L94 226.541L97.5 229.041L104.5 234.041L111 239.041L119 243.041L127.5 246.041L137 247.541H146.5H157H162.5L168.5 244.541L171.5 238.541L167.5 227.041L164 217.541L160 207.541L158 199.541L153.5 188.541L151 181.041L148 174.541L144.5 167.041L141.5 161.041L139 156.541L136 152.041L133 148.041L131.5 151.041L128 154.541L122.5 161.541L117.5 167.041L112.5 171.541L105.5 177.041L98 184.541L93 189.041C91.5 190.708 87.4 195.441 83 201.041Z"
       fill="#F90004"
       fill-opacity="0.53"
       stroke="black"
       id="path7" />
    <path
       d="M383.637 200.209C387.944 205.668 389.674 206.383 390 206.058V208.983L387.553 211.42L382.658 216.295L377.763 220.682L372.868 225.068L369.442 227.506L362.589 232.38L356.226 237.254L348.395 241.154L340.074 244.079L330.774 245.541H321.474H311.195H305.811L299.937 242.616L297 236.767L300.916 225.556L304.342 216.295L308.258 206.546L310.216 198.747L314.621 188.023L317.068 180.712L320.005 174.375L323.432 167.063L326.368 161.214L328.816 156.827L331.753 152.44L334.689 148.541L336.158 151.465L339.584 154.878L344.968 161.702L349.863 167.063L354.758 171.45L361.611 176.812L368.953 184.124L373.847 188.511C375.316 190.135 379.329 194.75 383.637 200.209Z"
       fill="#F90004"
       fill-opacity="0.53"
       stroke="black"
       id="path8" />
  </g>
  <g
     id="lats">
    <path
       d="M83 243.041L81 220.541L87 224.041L94.5 230.041L102 235.041L109 240.541L118.5 245.041L128 248.541L139.5 249.541H151H160L173 258.541L180 265.041L189 275.541L194.5 283.541L200.5 292.541L208.5 303.541L215.5 311.541L222 317.041L225 322.541L220.5 328.541L210.5 343.541L204.5 353.041L198 361.541L187.5 378.541L176.5 391.541L169 403.541L164 408.041L159.5 415.541C159.333 417.208 157.9 420.541 153.5 420.541H144L132 408.041L118.5 382.541L108.5 363.041L103.5 347.541L95 321.541L91.5 308.541V297.541V286.041L87.5 269.541L83 243.041Z"
       fill="#FF0000"
       fill-opacity="0.49"
       stroke="black"
       id="path9" />
    <path
       d="M382 243.041L384 220.541L378 224.041L370.5 230.041L363 235.041L356 240.541L346.5 245.041L337 248.541L325.5 249.541H314H305L292 258.541L285 265.041L276 275.541L270.5 283.541L264.5 292.541L256.5 303.541L249.5 311.541L243 317.041L240 322.541L244.5 328.541L254.5 343.541L260.5 353.041L267 361.541L277.5 378.541L288.5 391.541L296 403.541L301 408.041L305.5 415.541C305.667 417.208 307.1 420.541 311.5 420.541H321L333 408.041L346.5 382.541L356.5 363.041L361.5 347.541L370 321.541L373.5 308.541V297.541V286.041L377.5 269.541L382 243.041Z"
       fill="#FF0000"
       fill-opacity="0.49"
       stroke="black"
       id="path10" />
  </g>
  <g
     id="deltoid">
    <path
       d="M20 223.541L21.5 241.541L27.5 239.541L32.5 233.541L40 226.041L48.5 221.041L57.5 215.541L70 208.541L81 199.541L89.5 190.041L98.5 181.541L108.5 172.541L115 167.041L124.5 156.541L129.5 151.041L131 146.541L130 143.041L128 139.041L125.5 136.541L120.5 132.541L116 129.541L108.5 126.541L103 123.541L96.5 121.541L83 123.541L72 125.541L60.5 129.541L51.5 135.541C49.5 137.541 44 143.141 38 149.541C32 155.941 31.5 158.874 32 159.541L24 177.541L20 201.041V223.541Z"
       fill="white"
       fill-opacity="0.83"
       stroke="black"
       id="path11" />
    <path
       d="M446.486 225.351L444.448 242.846L438.511 240.713L433.693 234.712L426.421 227.173L418.075 222.04L409.243 216.403L396.959 209.198L386.233 200.09L378.022 190.571L369.28 182.011L359.554 172.933L353.222 167.374L344.04 156.849L339.207 151.336L337.843 146.904L338.947 143.524L341.066 139.687L343.639 137.328L348.757 133.583L353.344 130.798L360.931 128.104L366.518 125.349L373.075 123.6L386.508 125.963L397.443 128.25L408.818 132.501L417.634 138.624C419.574 140.635 424.904 146.261 430.709 152.682C436.515 159.103 436.927 161.977 436.407 162.612L443.865 180.399L447.16 203.424L446.486 225.351Z"
       fill="white"
       fill-opacity="0.83"
       stroke="black"
       id="path12" />
  </g>
  <path
     d="M111 112.541L102 120.541L111 123.541L123 130.041L130.5 138.541L138.5 150.041L144 162.541L150 174.541L154.5 187.041L159 197.541L165.5 217.041L171 232.541L182.5 254.541L197.5 279.541L205 291.541L212 302.041L221 309.541L226.5 314.541L235 321.041L244 312.041L260.5 289.541L275 268.041L285.5 251.541L295 232.541L302 214.041L309 197.541L315.5 181.541L318.5 171.541L324 161.541L330 149.041L332.5 144.541L336.5 140.041L341.5 135.041L351 129.041L356.5 126.541L364 125.041L366.5 123.541L364 120.041L360.5 117.541L354.5 114.041L348.5 110.041L341.5 106.541L334 102.541L328 99.5408L318.5 94.5408L307 90.0408L297.5 85.0408L287.5 79.5408L280.5 73.0408L276 68.5408L271 61.0408L267 54.5408L259 44.0408L255 37.5408L252 33.0408L250.5 28.0408L248.5 23.0408L247 12.0408L243.5 1.04083L240.5 0.540833L235 6.04083L230.5 0.540833L227.5 1.04083L224 12.0408L221.5 17.0408L219 23.0408L217 28.0408L214.5 33.0408L211.5 38.0408L209.5 42.0408L205 49.5408L200.5 56.0408L193.5 65.5408L191 68.5408L185 74.5408C179.8 79.7408 179.833 79.0408 180.5 78.0408L175 81.0408L168.5 84.0408L163.5 86.5408C157.5 89.3408 156.333 90.0408 156.5 90.0408L150 93.5408L142 97.0408L135.5 100.041L128.5 102.541L123 105.041L116 109.041L111 112.541Z"
     fill="#FF0000"
     fill-opacity="0.61"
     stroke="black"
     id="traps_and_upper_back" />
  <path
     d="M150.5 426.541L144 425.541L142.5 429.041V432.041L144 435.541L148 445.041L152 459.041L155 474.541L157.5 481.541L162 487.541L175.5 499.541L189 508.541L204.5 523.541L217 538.041L222 545.041L232.5 553.541L238.5 545.041L244.5 538.041L254.5 523.541L272 508.541L282.5 499.541L299 488.041L304.5 481.541L306.5 474.541L309 464.041L310.5 457.041L311.5 452.541L314 447.541L316.5 443.041L318.5 438.041L319.5 433.041L321 429.541L323 426.041V422.541L321 423.541L318.5 424.041H315L311.5 424.541L308.5 423.041L306.5 421.041L303 417.041L297.5 409.041L288.5 396.541L281 385.541L276.5 379.541L270.5 371.041L264 363.041L257 353.041L251 343.041L239 325.041L236.5 324.041H232.5H228L223.5 327.541L220.5 332.041L215.5 339.041L211.5 345.541C210.333 347.041 207.5 351.141 205.5 355.541C203.5 359.941 201.333 363.041 200.5 364.041L191 378.541L181.5 389.041L173 402.041L168.5 408.041L161 418.541L157.5 423.041L153.5 426.541H150.5Z"
     fill="#FF0000"
     fill-opacity="0.5"
     stroke="black"
     id="erector_spinae" />
  <g
     id="triceps">
    <path
       d="M27 243.041L20.5 251.041L15 257.541C10.6 262.741 7.16667 272.374 6 276.541L2 302.041L0.5 316.041V357.041L2.5 365.541L4 383.041L6.5 408.541L12.5 394.541L27 391.541L36 394.541L49.5 405.541L64.5 383.041L73 365.541L79 348.041L86 328.541L88.5 318.041L90 309.041V287.541L88.5 281.541L87 274.541L84 259.541L83 252.541L81 242.541L80 236.541L79.5 227.041V217.041L78 214.541L76 212.041L73.5 208.541L71.5 210.041L63 214.541L52.5 220.541L44 226.041L36 233.041L27 243.041Z"
       fill="white"
       fill-opacity="0.6"
       stroke="black"
       id="path15" />
    <path
       d="M439 246.041L445.5 254.041L451 260.541C455.4 265.741 458.833 275.374 460 279.541L464 305.041L465.5 319.041V360.041L463.5 368.541L462 386.041L459.5 411.541L453.5 397.541L439 394.541L430 397.541L416.5 408.541L401.5 386.041L393 368.541L387 351.041L380 331.541L377.5 321.041L376 312.041V290.541L377.5 284.541L379 277.541L382 262.541L383 255.541L385 245.541L386 239.541L386.5 230.041V220.041L388 217.541L390 215.041L392.5 211.541L394.5 213.041L403 217.541L413.5 223.541L422 229.041L430 236.041L439 246.041Z"
       fill="white"
       fill-opacity="0.6"
       stroke="black"
       id="path16" />
  </g>
  <g
     id="glutes">
    <path
       d="M112 573.541L105.5 592.541L103.5 600.041V606.541L104.5 618.541V626.041V636.041L104 644.041V650.541L106.5 654.541L108.5 663.541L110.5 669.041L112 674.541L115.5 681.041L119.5 685.541L122.5 690.041L126.5 692.541L132.5 690.541L141 688.041L149 684.541H154.5L162.5 683.541H168.5L177 682.041L183.5 679.541L190 677.541L202 670.041L209 665.041L215.5 658.041L221.5 650.041L225.5 641.541L228 631.041V589.541L227.5 580.541V575.541L223.5 558.041L222 555.041L218 550.541L209.5 539.541L204.5 534.041L199.5 528.541L193.5 523.041L186.5 517.541L181.5 514.041H173L161.5 519.041L151.5 524.041C147.833 527.041 138.3 535.441 129.5 545.041C120.7 554.641 119.833 558.708 120.5 559.541L112 573.541Z"
       fill="white"
       fill-opacity="0.68"
       stroke="black"
       id="path17" />
    <path
       d="M349 573.041L355.5 592.041L357.5 599.541V606.041L356.5 618.041V625.541V635.541L357 643.541V650.041L354.5 654.041L352.5 663.041L350.5 668.541L349 674.041L345.5 680.541L341.5 685.041L338.5 689.541L334.5 692.041L328.5 690.041L320 687.541L312 684.041H306.5L298.5 683.041H292.5L284 681.541L277.5 679.041L271 677.041L259 669.541L252 664.541L245.5 657.541L239.5 649.541L235.5 641.041L233 630.541V589.041L233.5 580.041V575.041L237.5 557.541L239 554.541L243 550.041L251.5 539.041L256.5 533.541L261.5 528.041L267.5 522.541L274.5 517.041L279.5 513.541H288L299.5 518.541L309.5 523.541C313.167 526.541 322.7 534.941 331.5 544.541C340.3 554.141 341.167 558.208 340.5 559.041L349 573.041Z"
       fill="white"
       fill-opacity="0.68"
       stroke="black"
       id="path18" />
  </g>
</svg>
