<?xml version="1.0" encoding="UTF-8" standalone="no"?>
<svg
   width="367"
   height="531"
   viewBox="0 0 367 531"
   fill="none"
   version="1.1"
   id="svg43"
   sodipodi:docname="Front.svg"
   inkscape:version="1.4.2 (f4327f4, 2025-05-13)"
   xmlns:inkscape="http://www.inkscape.org/namespaces/inkscape"
   xmlns:sodipodi="http://sodipodi.sourceforge.net/DTD/sodipodi-0.dtd"
   xmlns="http://www.w3.org/2000/svg"
   xmlns:svg="http://www.w3.org/2000/svg">
  <sodipodi:namedview
     id="namedview43"
     pagecolor="#ffffff"
     bordercolor="#000000"
     borderopacity="0.25"
     inkscape:showpageshadow="2"
     inkscape:pageopacity="0.0"
     inkscape:pagecheckerboard="0"
     inkscape:deskcolor="#d1d1d1"
     inkscape:zoom="1.4274953"
     inkscape:cx="183.18799"
     inkscape:cy="265.5"
     inkscape:window-width="1920"
     inkscape:window-height="976"
     inkscape:window-x="-9"
     inkscape:window-y="-9"
     inkscape:window-maximized="1"
     inkscape:current-layer="svg43" />
  <g
     filter="url(#filter0_d_2_15)"
     id="0002C"
     inkscape:label="CH#2">
    <desc
       id="desc49">The chest</desc>
    <title
       id="title49">Chest</title>
    <path
       d="M139.505 64.1581L133.505 65.6581L129.505 67.1581L124.505 70.6581L117.505 77.1581L110.005 83.1581L103.505 91.6581L96.5049 99.6581L89.5049 108.658L85.0049 113.158L81.5049 117.658L82.5049 121.658H86.0049L88.5049 122.658L92.0049 125.158L95.5049 128.158L98.0049 132.658L101.505 137.158L105.505 143.658L110.005 148.158L115.005 152.158L120.005 155.658L125.005 158.658L131.005 161.158L135.005 162.158H139.505H145.005H149.005L156.005 161.158L162.505 158.658L169.505 155.658L174.005 152.158L179.005 146.158L181.505 140.658L182.505 128.158V116.658V106.658V103.658V91.6581V85.6581L181.505 80.1581L179.005 73.6581L176.005 70.1581L171.505 68.1581H168.505L165.005 67.1581H160.005H156.505H152.505L148.505 65.6581L145.005 64.1581H139.505Z"
       fill="#FF0000"
       fill-opacity="0.54"
       stroke="black"
       id="path1" />
    <path
       d="M230.505 64.1581L236.505 65.6581L240.505 67.1581L245.505 70.6581L252.505 77.1581L260.005 83.1581L266.505 91.6581L273.505 99.6581L280.505 108.658L285.005 113.158L288.505 117.658L287.505 121.658H284.005L281.505 122.658L278.005 125.158L274.505 128.158L272.005 132.658L268.505 137.158L264.505 143.658L260.005 148.158L255.005 152.158L250.005 155.658L245.005 158.658L239.005 161.158L235.005 162.158H230.505H225.005H221.005L214.005 161.158L207.505 158.658L200.505 155.658L196.005 152.158L191.005 146.158L188.505 140.658L187.505 128.158V116.658V106.658V103.658V91.6581V85.6581L188.505 80.1581L191.005 73.6581L194.005 70.1581L198.505 68.1581H201.505L205.005 67.1581H210.005H213.505H217.505L221.505 65.6581L225.005 64.1581H230.505Z"
       fill="#FF0000"
       fill-opacity="0.54"
       stroke="black"
       id="path2" />
  </g>
  <path
     d="M178.005 156.658L145.505 169.158L144.005 172.658V178.658L145.005 192.658V231.158L147.505 265.158L148.505 284.658L157.505 311.658L169.505 332.658L177.505 339.158H190.505L197.505 332.658L209.505 311.658L219.005 284.658L220.005 265.158L222.005 231.158L223.005 192.658L223.505 186.158L224.505 178.658L223.505 171.658L221.005 168.158L194.505 158.158L188.505 156.658L184.505 153.658L178.005 156.658Z"
     fill="#FF0000"
     fill-opacity="0.51"
     stroke="#2E2626"
     id="0010C"
     inkscape:label="CO#10">
    <desc
       id="desc56">Core</desc>
    <title
       id="title56">Core</title>
  </path>
  <g
     id="0006O"
     inkscape:label="OB#6">
    <title
       id="title48">Obliques</title>
    <path
       d="M234.505 175.158L229.005 180.658L228.005 181.158L227.005 182.658L226.505 184.658L226.005 186.158L225.505 187.658L224.505 190.158L224.005 193.658V198.158V201.658V205.658L225.005 210.158V220.158V229.158V242.158V248.158L225.505 250.158V252.658L226.505 255.158L227.505 256.658L228.505 259.158V274.158L229.505 279.658L231.005 283.158L234.005 286.658L235.505 287.658L248.005 279.658L254.505 274.158L258.505 268.158L259.005 264.158V251.658L258.505 241.158L257.005 231.658L256.505 220.158L258.505 210.158L257.505 206.658L258.505 203.658L259.005 200.158L260.505 195.658H259.005L257.505 194.158V191.158L261.005 183.158H259.505L257.505 180.658V178.158L259.505 174.658L261.005 172.158L257.005 170.658L254.505 167.658L258.005 160.658L258.505 152.158L254.005 155.158L246.005 161.158L240.005 168.658L234.505 175.158Z"
       fill="white"
       fill-opacity="0.65"
       stroke="#2E2626"
       id="path4"
       style="fill:#222b00" />
    <path
       d="M133.005 175.158L138.505 180.658L139.505 181.158L140.505 182.658L141.005 184.658L141.505 186.158L142.005 187.658L143.005 190.158L143.505 193.658V198.158V201.658V205.658L142.505 210.158V220.158V229.158V242.158V248.158L142.005 250.158V252.658L141.005 255.158L140.005 256.658L139.005 259.158V274.158L138.005 279.658L136.505 283.158L133.505 286.658L132.005 287.658L119.505 279.658L113.005 274.158L109.005 268.158L108.505 264.158V251.658L109.005 241.158L110.505 231.658L111.005 220.158L109.005 210.158L110.005 206.658L109.005 203.658L108.505 200.158L107.005 195.658H108.505L110.005 194.158V191.158L106.505 183.158H108.005L110.005 180.658V178.158L108.005 174.658L106.505 172.158L110.505 170.658L113.005 167.658L109.505 160.658L109.005 152.158L113.505 155.158L121.505 161.158L127.505 168.658L133.005 175.158Z"
       fill="white"
       fill-opacity="0.65"
       stroke="#2E2626"
       id="path5"
       style="fill:#222b00" />
  </g>
  <g
     id="0007Q"
     inkscape:label="QA#7">
    <desc
       id="desc52">The Quads</desc>
    <title
       id="title52">Quads</title>
    <path
       d="M115.505 329.658L122.505 314.158V313.158V301.464L121.005 290.158V284.658L130.505 290.158L134.005 302.158L139.005 319.658L144.005 339.658L150.005 371.658L153.505 393.158L158.505 426.158L160.005 455.658V472.658L158.505 491.658L155.005 498.158L156.505 491.658V480.158L153.505 461.658L141.005 415.158L140.005 417.158V428.158L136.505 447.158L133.005 461.658L126.005 477.658C123.338 481.991 117.305 491.158 114.505 493.158C111.705 495.158 109.338 492.325 108.505 490.658L105.005 487.658L106.005 497.158L105.005 513.158L102.005 507.158L98.0049 498.158L93.0049 485.158L90.5049 472.658L88.0049 456.658V435.158V415.158V387.658L92.5049 372.658L97.5049 358.658L105.505 342.158L115.505 329.658Z"
       fill="white"
       fill-opacity="0.62"
       stroke="#2E2626"
       id="path6" />
    <path
       d="M251.005 326.158L244.005 310.658V309.658V297.964L245.505 286.658V281.158L236.005 286.658L232.505 298.658L227.505 316.158L222.505 336.158L216.505 368.158L213.005 389.658L208.005 422.658L206.505 452.158V469.158L208.005 488.158L211.505 494.658L210.005 488.158V476.658L213.005 458.158L225.505 411.658L226.505 413.658V424.658L230.005 443.658L233.505 458.158L240.505 474.158C243.172 478.491 249.205 487.658 252.005 489.658C254.805 491.658 257.172 488.825 258.005 487.158L261.505 484.158L260.505 493.658L261.505 509.658L264.505 503.658L268.505 494.658L273.505 481.658L276.005 469.158L278.505 453.158V431.658V411.658V384.158L274.005 369.158L269.005 355.158L261.005 338.658L251.005 326.158Z"
       fill="white"
       fill-opacity="0.62"
       stroke="#2E2626"
       id="path7" />
  </g>
  <g
     id="0008V"
     inkscape:label="VM#8">
    <desc
       id="desc53">The vasto medial</desc>
    <title
       id="title53">Vasto Medial</title>
    <path
       d="M141.811 431.601L142.431 425.33L145.821 439.781L152.7 464.644L155.101 481.316L154.851 491.637L153.329 496.539L152.753 501.016L150.198 509.934L147.242 516.149L142.862 523.227L137.177 526.232L132.504 526.119L128.363 523.324L124.277 518.286L120.745 509.669L119.473 504.249L119.202 496.16L119.333 490.775L127.571 478.852L134.473 464.201L140.68 439.656L141.811 431.601Z"
       fill="#3895C7"
       fill-opacity="0.68"
       stroke="#2E2626"
       id="path8" />
    <path
       d="M225.801 432.308L225.057 426.047L221.583 440.556L214.479 465.536L212.098 482.249L212.494 492.565L214.193 497.442L214.869 501.908L217.729 510.782L220.99 516.946L225.794 523.949L231.954 526.857L236.986 526.664L241.411 523.798L245.75 518.69L249.448 510.013L250.751 504.572L250.944 496.479L250.738 491.096L241.718 479.314L234.104 464.782L227.118 440.343L225.801 432.308Z"
       fill="#3895C7"
       fill-opacity="0.68"
       stroke="#2E2626"
       id="path9" />
  </g>
  <g
     id="0008F"
     inkscape:highlight-color="#aaaaaa"
     inkscape:label="FO#8">
    <desc
       id="desc47">The forearms</desc>
    <title
       id="title47">Forearms</title>
    <path
       d="m 330.406,220.658 -1.003,12.5 -4.01,-7.5 -7.02,-5 -6.016,-4.5 -5.014,-4.5 -4.011,-4 v 2.5 l 1.504,5 v 7.5 l 2.507,10.5 2.006,4.5 3.008,13 5.014,13 5.013,9.5 6.017,9 12.033,20 5.013,6 5.515,7.5 1.003,5.5 3.008,13.5 2.006,-6.5 v -7 l 1.003,-11 4.011,-8 4.512,-15 -2.006,-30.5 -2.005,-9.5 -5.014,-21.5 -6.518,-11.5 -8.523,-14.5 -5.515,-8.5 -1.504,13.5 -1.504,7 z"
       fill="#00b7ff"
       fill-opacity="0.56"
       stroke="#2e2626"
       id="path10" />
    <path
       d="m 36.6035,220.658 1.0027,12.5 4.011,-7.5 7.0192,-5 6.0164,-4.5 5.0137,-4.5 4.011,-4 v 2.5 l -1.5041,5 v 7.5 l -2.5069,10.5 -2.0055,4.5 -3.0082,13 -5.0137,13 -5.0137,9.5 -6.0164,9 -12.0329,20 -5.0137,6 -5.5151,7.5 -1.0027,5.5 -3.0082,13.5 -2.0055,-6.5 v -7 l -1.00276,-11 -4.01096,-8 -4.512328,-15 2.005478,-30.5 2.00548,-9.5 5.0137,-21.5 6.51779,-11.5 8.5233,-14.5 5.5151,-8.5 1.5041,13.5 1.5041,7 z"
       fill="#00b7ff"
       fill-opacity="0.56"
       stroke="#2e2626"
       id="path11" />
  </g>
  <path
     d="M38.5049 212.158V221.658V226.658L40.5049 223.658L44.5049 220.158L50.0049 216.658L56.0049 210.658L63.0049 204.158L72.5049 187.658L77.5049 176.658L83.0049 163.158L86.5049 153.658L88.5049 137.658L89.5049 130.658V127.658L83.5049 125.658L81.5049 127.658L78.0049 127.158H73.0049L68.5049 129.158L61.5049 132.158L56.5049 136.158L51.5049 144.658L48.0049 152.158L44.0049 160.158L41.0049 167.158L38.5049 173.158L36.5049 178.658L35.0049 187.658V195.158L36.5049 204.158L38.5049 212.158Z"
     stroke="#2E2626"
     id="path13" />
  <path
     d="M38.5049 212.158V221.658V226.658L40.5049 223.658L44.5049 220.158L50.0049 216.658L56.0049 210.658L63.0049 204.158L72.5049 187.658L77.5049 176.658L83.0049 163.158L86.5049 153.658L88.5049 137.658L89.5049 130.658V127.658L83.5049 125.658L81.5049 127.658L78.0049 127.158H73.0049L68.5049 129.158L61.5049 132.158L56.5049 136.158L51.5049 144.658L48.0049 152.158L44.0049 160.158L41.0049 167.158L38.5049 173.158L36.5049 178.658L35.0049 187.658V195.158L36.5049 204.158L38.5049 212.158Z"
     stroke="black"
     stroke-opacity="0.2"
     id="path14" />
  <path
     d="M327.537 210.945V220.257V225.158L325.555 222.218L321.592 218.787L316.142 215.356L310.198 209.475L303.262 203.104L293.849 186.93L288.895 176.148L283.445 162.916L279.977 153.604L277.996 137.92L277.005 131.059V128.119L282.95 126.158L284.931 128.119L288.399 127.628H293.353L297.812 129.589L304.748 132.529L309.702 136.45L314.656 144.782L318.124 152.133L322.087 159.975L325.06 166.836L327.537 172.718L329.519 178.109L331.005 186.93V194.282L329.519 203.104L327.537 210.945Z"
     fill="white"
     fill-opacity="0.49"
     id="path15" />
  <path
     d="M327.537 210.945V220.257V225.158L325.555 222.218L321.592 218.787L316.142 215.356L310.198 209.475L303.262 203.104L293.849 186.93L288.895 176.148L283.445 162.916L279.977 153.604L277.996 137.92L277.005 131.059V128.119L282.95 126.158L284.931 128.119L288.399 127.628H293.353L297.812 129.589L304.748 132.529L309.702 136.45L314.656 144.782L318.124 152.133L322.087 159.975L325.06 166.836L327.537 172.718L329.519 178.109L331.005 186.93V194.282L329.519 203.104L327.537 210.945Z"
     stroke="#2E2626"
     id="path16" />
  <g
     id="0003B"
     inkscape:label="BI#1">
    <desc
       id="desc44">Biceps</desc>
    <title
       id="title44">Biceps</title>
    <path
       d="M38.5049 212.158V221.658V226.658L40.5049 223.658L44.5049 220.158L50.0049 216.658L56.0049 210.658L63.0049 204.158L72.5049 187.658L77.5049 176.658L83.0049 163.158L86.5049 153.658L88.5049 137.658L89.5049 130.658V127.658L83.5049 125.658L81.5049 127.658L78.0049 127.158H73.0049L68.5049 129.158L61.5049 132.158L56.5049 136.158L51.5049 144.658L48.0049 152.158L44.0049 160.158L41.0049 167.158L38.5049 173.158L36.5049 178.658L35.0049 187.658V195.158L36.5049 204.158L38.5049 212.158Z"
       fill="white"
       fill-opacity="0.49"
       id="path12" />
    <path
       d="M327.537 210.945V220.257V225.158L325.555 222.218L321.592 218.787L316.142 215.356L310.198 209.475L303.262 203.104L293.849 186.93L288.895 176.148L283.445 162.916L279.977 153.604L277.996 137.92L277.005 131.059V128.119L282.95 126.158L284.931 128.119L288.399 127.628H293.353L297.812 129.589L304.748 132.529L309.702 136.45L314.656 144.782L318.124 152.133L322.087 159.975L325.06 166.836L327.537 172.718L329.519 178.109L331.005 186.93V194.282L329.519 203.104L327.537 210.945Z"
       stroke="black"
       stroke-opacity="0.2"
       id="path17" />
  </g>
  <path
     d="M150.505 22.1581V0.158112L151.505 3.15811L156.005 8.65811L160.005 15.1581L163.505 23.1581L169.005 36.6581L172.005 43.6581L176.505 56.6581L178.005 61.1581L181.005 67.1581L183.505 70.1581L184.005 73.1581L182.005 72.1581L181.005 71.1581L178.005 68.1581L174.505 66.1581L172.005 65.1581L169.005 60.6581L162.505 47.6581L161.005 48.1581V50.6581V57.6581V60.6581L160.005 63.1581L157.505 65.1581H155.005L150.505 64.1581L147.505 62.6581L145.005 62.1581H139.005L133.005 61.1581L131.005 60.1581L136.005 58.1581L140.005 56.6581L144.005 53.1581L146.005 49.1581C147.505 49.1581 150.505 43.7581 150.505 22.1581Z"
     fill="white"
     fill-opacity="0.66"
     id="path18" />
  <path
     d="M150.505 22.1581V0.158112L151.505 3.15811L156.005 8.65811L160.005 15.1581L163.505 23.1581L169.005 36.6581L172.005 43.6581L176.505 56.6581L178.005 61.1581L181.005 67.1581L183.505 70.1581L184.005 73.1581L182.005 72.1581L181.005 71.1581L178.005 68.1581L174.505 66.1581L172.005 65.1581L169.005 60.6581L162.505 47.6581L161.005 48.1581V50.6581V57.6581V60.6581L160.005 63.1581L157.505 65.1581H155.005L150.505 64.1581L147.505 62.6581L145.005 62.1581H139.005L133.005 61.1581L131.005 60.1581L136.005 58.1581L140.005 56.6581L144.005 53.1581L146.005 49.1581C147.505 49.1581 150.505 43.7581 150.505 22.1581Z"
     stroke="#2E2626"
     id="path19" />
  <g
     id="0005N"
     inkscape:label="NE#5">
    <desc
       id="desc50">The neck</desc>
    <title
       id="title50">Neck</title>
    <path
       d="M150.505 22.1581V0.158112L151.505 3.15811L156.005 8.65811L160.005 15.1581L163.505 23.1581L169.005 36.6581L172.005 43.6581L176.505 56.6581L178.005 61.1581L181.005 67.1581L183.505 70.1581L184.005 73.1581L182.005 72.1581L181.005 71.1581L178.005 68.1581L174.505 66.1581L172.005 65.1581L169.005 60.6581L162.505 47.6581L161.005 48.1581V50.6581V57.6581V60.6581L160.005 63.1581L157.505 65.1581H155.005L150.505 64.1581L147.505 62.6581L145.005 62.1581H139.005L133.005 61.1581L131.005 60.1581L136.005 58.1581L140.005 56.6581L144.005 53.1581L146.005 49.1581C147.505 49.1581 150.505 43.7581 150.505 22.1581Z"
       stroke="black"
       stroke-opacity="0.2"
       id="path20" />
    <path
       d="M216.477 21.5554V0.158112L215.552 3.07592L211.392 8.42523L207.694 14.7472L204.458 22.528L199.373 35.6581L196.599 42.4663L192.439 55.1102L191.052 59.4869L188.278 65.3225L185.967 68.2403L185.505 71.1581L187.354 70.1855L188.278 69.2129L191.052 66.2951L194.288 64.3499L196.599 63.3773L199.373 59.0006L205.382 46.3567L206.769 46.843V49.2745V56.0828V59.0006L207.694 61.4321L210.005 63.3773H212.316L216.477 62.4047L219.25 60.9458L221.561 60.4595H227.109L232.656 59.4869L234.505 58.5143L229.882 56.5691L226.184 55.1102L222.486 51.7061L220.637 47.8156C219.25 47.8156 216.477 42.5636 216.477 21.5554Z"
       fill="white"
       fill-opacity="0.66"
       id="path21" />
  </g>
  <path
     d="M216.477 21.5554V0.158112L215.552 3.07592L211.392 8.42523L207.694 14.7472L204.458 22.528L199.373 35.6581L196.599 42.4663L192.439 55.1102L191.052 59.4869L188.278 65.3225L185.967 68.2403L185.505 71.1581L187.354 70.1855L188.278 69.2129L191.052 66.2951L194.288 64.3499L196.599 63.3773L199.373 59.0006L205.382 46.3567L206.769 46.843V49.2745V56.0828V59.0006L207.694 61.4321L210.005 63.3773H212.316L216.477 62.4047L219.25 60.9458L221.561 60.4595H227.109L232.656 59.4869L234.505 58.5143L229.882 56.5691L226.184 55.1102L222.486 51.7061L220.637 47.8156C219.25 47.8156 216.477 42.5636 216.477 21.5554Z"
     stroke="#2E2626"
     id="path22" />
  <path
     d="M216.477 21.5554V0.158112L215.552 3.07592L211.392 8.42523L207.694 14.7472L204.458 22.528L199.373 35.6581L196.599 42.4663L192.439 55.1102L191.052 59.4869L188.278 65.3225L185.967 68.2403L185.505 71.1581L187.354 70.1855L188.278 69.2129L191.052 66.2951L194.288 64.3499L196.599 63.3773L199.373 59.0006L205.382 46.3567L206.769 46.843V49.2745V56.0828V59.0006L207.694 61.4321L210.005 63.3773H212.316L216.477 62.4047L219.25 60.9458L221.561 60.4595H227.109L232.656 59.4869L234.505 58.5143L229.882 56.5691L226.184 55.1102L222.486 51.7061L220.637 47.8156C219.25 47.8156 216.477 42.5636 216.477 21.5554Z"
     stroke="black"
     stroke-opacity="0.2"
     id="path23" />
  <path
     d="M93.0049 131.158L92.5049 126.158L95.0049 128.158L98.5049 134.158L101.005 137.658L109.505 148.658L108.505 151.158L109.005 160.658L112.505 167.658L110.505 170.158L106.005 172.158L109.505 178.158V180.658L108.005 182.658H106.005L109.505 191.158V194.158L108.005 195.158H106.005L106.505 195.658L108.005 201.158V202.658L108.505 203.658L109.005 205.158L108.505 210.658H107.505L106.505 208.158L104.005 203.658L100.505 194.658L98.5049 188.158L97.5049 185.158L95.0049 177.658L94.5049 174.158L92.0049 167.658L91.5049 164.158V155.658L92.0049 151.658L93.0049 146.158V140.658V131.158Z"
     fill="white"
     fill-opacity="0.54"
     id="path24"
     style="fill:#ff0000" />
  <path
     d="M93.0049 131.158L92.5049 126.158L95.0049 128.158L98.5049 134.158L101.005 137.658L109.505 148.658L108.505 151.158L109.005 160.658L112.505 167.658L110.505 170.158L106.005 172.158L109.505 178.158V180.658L108.005 182.658H106.005L109.505 191.158V194.158L108.005 195.158H106.005L106.505 195.658L108.005 201.158V202.658L108.505 203.658L109.005 205.158L108.505 210.658H107.505L106.505 208.158L104.005 203.658L100.505 194.658L98.5049 188.158L97.5049 185.158L95.0049 177.658L94.5049 174.158L92.0049 167.658L91.5049 164.158V155.658L92.0049 151.658L93.0049 146.158V140.658V131.158Z"
     stroke="#2E2626"
     id="path25" />
  <path
     d="M273.076 134.451L273.552 129.658L271.172 131.575L267.838 137.327L265.457 140.682L257.362 151.226L258.314 153.623L257.838 162.729L254.505 169.439L256.41 171.836L260.695 173.753L257.362 179.504V181.901L258.791 183.818H260.695L257.362 191.966V194.842L258.791 195.8H260.695L260.219 196.279L258.791 201.552V202.989L258.314 203.948L257.838 205.386L258.314 210.658H259.267L260.219 208.262L262.6 203.948L265.933 195.321L267.838 189.09L268.791 186.214L271.172 179.025L271.648 175.67L274.029 169.439L274.505 166.084V157.936L274.029 154.102L273.076 148.83V143.558V134.451Z"
     fill="white"
     fill-opacity="0.54"
     id="path27" />
  <path
     d="M273.076 134.451L273.552 129.658L271.172 131.575L267.838 137.327L265.457 140.682L257.362 151.226L258.314 153.623L257.838 162.729L254.505 169.439L256.41 171.836L260.695 173.753L257.362 179.504V181.901L258.791 183.818H260.695L257.362 191.966V194.842L258.791 195.8H260.695L260.219 196.279L258.791 201.552V202.989L258.314 203.948L257.838 205.386L258.314 210.658H259.267L260.219 208.262L262.6 203.948L265.933 195.321L267.838 189.09L268.791 186.214L271.172 179.025L271.648 175.67L274.029 169.439L274.505 166.084V157.936L274.029 154.102L273.076 148.83V143.558V134.451Z"
     stroke="#2E2626"
     id="path28" />
  <g
     id="0001S"
     inkscape:label="SA#3"
     style="fill:#c83737">
    <desc
       id="desc51">The Serratus Anterior</desc>
    <title
       id="title51">Serratus Anterior</title>
    <path
       d="M93.0049 131.158L92.5049 126.158L95.0049 128.158L98.5049 134.158L101.005 137.658L109.505 148.658L108.505 151.158L109.005 160.658L112.505 167.658L110.505 170.158L106.005 172.158L109.505 178.158V180.658L108.005 182.658H106.005L109.505 191.158V194.158L108.005 195.158H106.005L106.505 195.658L108.005 201.158V202.658L108.505 203.658L109.005 205.158L108.505 210.658H107.505L106.505 208.158L104.005 203.658L100.505 194.658L98.5049 188.158L97.5049 185.158L95.0049 177.658L94.5049 174.158L92.0049 167.658L91.5049 164.158V155.658L92.0049 151.658L93.0049 146.158V140.658V131.158Z"
       stroke="black"
       stroke-opacity="0.2"
       id="path26"
       style="fill:#c83737" />
    <path
       d="M273.076 134.451L273.552 129.658L271.172 131.575L267.838 137.327L265.457 140.682L257.362 151.226L258.314 153.623L257.838 162.729L254.505 169.439L256.41 171.836L260.695 173.753L257.362 179.504V181.901L258.791 183.818H260.695L257.362 191.966V194.842L258.791 195.8H260.695L260.219 196.279L258.791 201.552V202.989L258.314 203.948L257.838 205.386L258.314 210.658H259.267L260.219 208.262L262.6 203.948L265.933 195.321L267.838 189.09L268.791 186.214L271.172 179.025L271.648 175.67L274.029 169.439L274.505 166.084V157.936L274.029 154.102L273.076 148.83V143.558V134.451Z"
       stroke="black"
       stroke-opacity="0.2"
       id="path29"
       style="fill:#c83737" />
  </g>
  <path
     d="M249.505 60.6581L247.505 63.6581V66.1581L249.505 67.1581L256.005 74.1581L262.005 83.1581L283.005 108.158L291.505 118.658L297.005 123.158L301.005 123.658L305.505 125.658L311.505 130.658L314.505 135.158L319.005 141.658L321.005 135.158L322.005 129.658V123.658V115.158V109.158L321.005 102.158L320.005 98.1581L318.005 91.6581L316.505 88.1581L314.505 84.6581L310.505 79.1581L308.505 75.1581L304.505 71.6581L299.005 66.6581L295.005 63.6581L290.005 60.6581L283.005 57.6581L279.005 55.6581L273.505 54.1581H268.505L262.505 55.6581L256.005 57.6581L249.505 60.6581Z"
     stroke="#2E2626"
     id="path31" />
  <path
     d="M249.505 60.6581L247.505 63.6581V66.1581L249.505 67.1581L256.005 74.1581L262.005 83.1581L283.005 108.158L291.505 118.658L297.005 123.158L301.005 123.658L305.505 125.658L311.505 130.658L314.505 135.158L319.005 141.658L321.005 135.158L322.005 129.658V123.658V115.158V109.158L321.005 102.158L320.005 98.1581L318.005 91.6581L316.505 88.1581L314.505 84.6581L310.505 79.1581L308.505 75.1581L304.505 71.6581L299.005 66.6581L295.005 63.6581L290.005 60.6581L283.005 57.6581L279.005 55.6581L273.505 54.1581H268.505L262.505 55.6581L256.005 57.6581L249.505 60.6581Z"
     stroke="black"
     stroke-opacity="0.2"
     id="path32" />
  <g
     id="0004D"
     inkscape:label="DL#4">
    <desc
       id="desc55">Deltoids</desc>
    <title
       id="title55">Deltoids</title>
    <path
       d="M249.505 60.6581L247.505 63.6581V66.1581L249.505 67.1581L256.005 74.1581L262.005 83.1581L283.005 108.158L291.505 118.658L297.005 123.158L301.005 123.658L305.505 125.658L311.505 130.658L314.505 135.158L319.005 141.658L321.005 135.158L322.005 129.658V123.658V115.158V109.158L321.005 102.158L320.005 98.1581L318.005 91.6581L316.505 88.1581L314.505 84.6581L310.505 79.1581L308.505 75.1581L304.505 71.6581L299.005 66.6581L295.005 63.6581L290.005 60.6581L283.005 57.6581L279.005 55.6581L273.505 54.1581H268.505L262.505 55.6581L256.005 57.6581L249.505 60.6581Z"
       fill="white"
       fill-opacity="0.67"
       id="path30" />
    <path
       d="M120.005 59.6581L122.005 62.6581V65.1581L120.005 66.1581L113.505 73.1581L107.505 82.1581L86.5049 107.158L78.0049 117.658L72.5049 122.158L68.5049 122.658L64.0049 124.658L58.0049 129.658L55.0049 134.158L50.5049 140.658L48.5049 134.158L47.5049 128.658V122.658V114.158V108.158L48.5049 101.158L49.5049 97.1581L51.5049 90.6581L53.0049 87.1581L55.0049 83.6581L59.0049 78.1581L61.0049 74.1581L65.0049 70.6581L70.5049 65.6581L74.5049 62.6581L79.5049 59.6581L86.5049 56.6581L90.5049 54.6581L96.0049 53.1581H101.005L107.005 54.6581L113.505 56.6581L120.005 59.6581Z"
       fill="white"
       fill-opacity="0.67"
       id="path33" />
  </g>
  <path
     d="M120.005 59.6581L122.005 62.6581V65.1581L120.005 66.1581L113.505 73.1581L107.505 82.1581L86.5049 107.158L78.0049 117.658L72.5049 122.158L68.5049 122.658L64.0049 124.658L58.0049 129.658L55.0049 134.158L50.5049 140.658L48.5049 134.158L47.5049 128.658V122.658V114.158V108.158L48.5049 101.158L49.5049 97.1581L51.5049 90.6581L53.0049 87.1581L55.0049 83.6581L59.0049 78.1581L61.0049 74.1581L65.0049 70.6581L70.5049 65.6581L74.5049 62.6581L79.5049 59.6581L86.5049 56.6581L90.5049 54.6581L96.0049 53.1581H101.005L107.005 54.6581L113.505 56.6581L120.005 59.6581Z"
     stroke="#2E2626"
     id="path34" />
  <path
     d="M120.005 59.6581L122.005 62.6581V65.1581L120.005 66.1581L113.505 73.1581L107.505 82.1581L86.5049 107.158L78.0049 117.658L72.5049 122.158L68.5049 122.658L64.0049 124.658L58.0049 129.658L55.0049 134.158L50.5049 140.658L48.5049 134.158L47.5049 128.658V122.658V114.158V108.158L48.5049 101.158L49.5049 97.1581L51.5049 90.6581L53.0049 87.1581L55.0049 83.6581L59.0049 78.1581L61.0049 74.1581L65.0049 70.6581L70.5049 65.6581L74.5049 62.6581L79.5049 59.6581L86.5049 56.6581L90.5049 54.6581L96.0049 53.1581H101.005L107.005 54.6581L113.505 56.6581L120.005 59.6581Z"
     stroke="black"
     stroke-opacity="0.2"
     id="path35" />
  <path
     d="M150.951 353.681L159.145 333.158H161.073L162.519 336.022L165.893 339.363L170.231 344.135L176.498 351.294L179.872 354.158V358.931V365.135L180.836 368.954V376.59L179.872 385.658V392.34L178.426 400.454L176.98 407.613L176.016 413.34L174.088 419.544L171.678 427.658L167.821 438.635L164.929 447.226L163.001 456.772L162.037 450.09L160.109 418.59L149.505 359.885L150.951 353.681Z"
     stroke="#2E2626"
     id="path37" />
  <path
     d="M150.951 353.681L159.145 333.158H161.073L162.519 336.022L165.893 339.363L170.231 344.135L176.498 351.294L179.872 354.158V358.931V365.135L180.836 368.954V376.59L179.872 385.658V392.34L178.426 400.454L176.98 407.613L176.016 413.34L174.088 419.544L171.678 427.658L167.821 438.635L164.929 447.226L163.001 456.772L162.037 450.09L160.109 418.59L149.505 359.885L150.951 353.681Z"
     stroke="black"
     stroke-opacity="0.2"
     id="path38" />
  <g
     id="0009A"
     inkscape:label="AB#9">
    <desc
       id="desc54">The abductors</desc>
    <title
       id="title54">Abductors</title>
    <path
       d="M150.951 353.681L159.145 333.158H161.073L162.519 336.022L165.893 339.363L170.231 344.135L176.498 351.294L179.872 354.158V358.931V365.135L180.836 368.954V376.59L179.872 385.658V392.34L178.426 400.454L176.98 407.613L176.016 413.34L174.088 419.544L171.678 427.658L167.821 438.635L164.929 447.226L163.001 456.772L162.037 450.09L160.109 418.59L149.505 359.885L150.951 353.681Z"
       fill="white"
       fill-opacity="0.62"
       id="path36" />
    <path
       d="M215.17 354.077L207.606 333.158H205.826L204.492 336.077L201.377 339.482L197.373 344.347L191.588 351.645L188.474 354.564V359.428V365.753L187.584 369.645V377.428L188.474 386.672V393.482L189.809 401.753L191.143 409.05L192.033 414.888L193.813 421.212L196.038 429.482L199.597 440.672L202.267 449.428L204.047 459.158L204.937 452.347L206.716 420.239L216.505 360.401L215.17 354.077Z"
       fill="white"
       fill-opacity="0.62"
       id="path39" />
  </g>
  <path
     d="M215.17 354.077L207.606 333.158H205.826L204.492 336.077L201.377 339.482L197.373 344.347L191.588 351.645L188.474 354.564V359.428V365.753L187.584 369.645V377.428L188.474 386.672V393.482L189.809 401.753L191.143 409.05L192.033 414.888L193.813 421.212L196.038 429.482L199.597 440.672L202.267 449.428L204.047 459.158L204.937 452.347L206.716 420.239L216.505 360.401L215.17 354.077Z"
     stroke="#2E2626"
     id="path40" />
  <path
     d="M215.17 354.077L207.606 333.158H205.826L204.492 336.077L201.377 339.482L197.373 344.347L191.588 351.645L188.474 354.564V359.428V365.753L187.584 369.645V377.428L188.474 386.672V393.482L189.809 401.753L191.143 409.05L192.033 414.888L193.813 421.212L196.038 429.482L199.597 440.672L202.267 449.428L204.047 459.158L204.937 452.347L206.716 420.239L216.505 360.401L215.17 354.077Z"
     stroke="black"
     stroke-opacity="0.2"
     id="path41" />
  <defs
     id="defs43">
    <filter
       id="filter0_d_2_15"
       x="76.9608"
       y="63.6581"
       width="216.088"
       height="107"
       filterUnits="userSpaceOnUse"
       color-interpolation-filters="sRGB">
      <feFlood
         flood-opacity="0"
         result="BackgroundImageFix"
         id="feFlood41" />
      <feColorMatrix
         in="SourceAlpha"
         type="matrix"
         values="0 0 0 0 0 0 0 0 0 0 0 0 0 0 0 0 0 0 127 0"
         result="hardAlpha"
         id="feColorMatrix41" />
      <feOffset
         dy="4"
         id="feOffset41" />
      <feGaussianBlur
         stdDeviation="2"
         id="feGaussianBlur41" />
      <feComposite
         in2="hardAlpha"
         operator="out"
         id="feComposite41" />
      <feColorMatrix
         type="matrix"
         values="0 0 0 0 0 0 0 0 0 0 0 0 0 0 0 0 0 0 0.25 0"
         id="feColorMatrix42" />
      <feBlend
         mode="normal"
         in2="BackgroundImageFix"
         result="effect1_dropShadow_2_15"
         id="feBlend42" />
      <feBlend
         mode="normal"
         in="SourceGraphic"
         in2="effect1_dropShadow_2_15"
         result="shape"
         id="feBlend43" />
    </filter>
  </defs>
</svg>
